<?xml version="1.0" standalone="no"?>
<!DOCTYPE svg PUBLIC "-//W3C//DTD SVG 20010904//EN"
 "http://www.w3.org/TR/2001/REC-SVG-20010904/DTD/svg10.dtd">
<svg version="1.0" xmlns="http://www.w3.org/2000/svg"
 width="300.000000pt" height="300.000000pt" viewBox="0 0 300.000000 300.000000"
 preserveAspectRatio="xMidYMid meet">
<metadata>
Created by potrace 1.11, written by Peter Selinger 2001-2013
</metadata>
<g transform="translate(0.000000,300.000000) scale(0.100000,-0.100000)"
fill="#000000" stroke="none">
<path d="M1347 2495 c-53 -18 -115 -61 -158 -107 -40 -43 -93 -143 -105 -198
-4 -19 -9 -38 -10 -42 -1 -5 -2 -17 -3 -28 0 -11 -6 -20 -12 -20 -6 0 -45 -17
-86 -37 -92 -45 -179 -128 -217 -204 -35 -73 -38 -88 -42 -204 -3 -120 10
-166 92 -328 147 -289 320 -500 478 -583 57 -29 66 -45 30 -50 -39 -6 -164
-70 -164 -84 0 -6 -5 -10 -11 -10 -5 0 -27 -13 -47 -29 -23 -19 -62 -36 -104
-45 -80 -18 -182 -63 -235 -103 -34 -24 -133 -122 -167 -163 -31 -38 -90 -175
-102 -238 l-4 -22 1202 2 1203 3 -2 40 c-1 42 -12 160 -17 185 -1 8 -6 35 -10
60 -11 69 -12 73 -24 103 -7 16 -12 33 -12 38 0 20 -41 89 -70 119 -17 17 -56
43 -87 57 -48 22 -73 27 -172 29 -64 2 -134 -1 -155 -6 -38 -8 -42 -7 -81 33
-86 89 -200 120 -434 119 l-125 -1 35 21 c39 23 41 25 128 110 35 35 75 79 90
98 14 19 28 37 31 40 11 10 78 117 114 182 38 68 92 212 101 271 3 18 8 45 11
60 7 36 7 144 0 177 -4 14 -8 37 -11 53 -9 47 -56 135 -98 183 -91 104 -262
175 -442 185 l-40 3 -1 85 c0 88 -19 145 -63 195 -43 49 -140 73 -204 51z"/>
</g>
</svg>
